<?xml version="1.0" encoding="UTF-8" standalone="no"?>
<!-- Created with Inkscape (http://www.inkscape.org/) -->

<svg
   width="512"
   height="512"
   viewBox="0 0 512 512"
   version="1.1"
   id="svg1"
   xmlns="http://www.w3.org/2000/svg"
   xmlns:svg="http://www.w3.org/2000/svg">
  <defs
     id="defs1" />
  <g
     id="layer1">
    <rect
       style="fill:#f08149"
       id="rect1"
       width="511.96414"
       height="511.96414"
       x="0"
       y="0.96415091"
       ry="50" />
  </g>
  <g
     id="layer2">
    <path
       id="path6"
       style="fill:#ffffff"
       d="M 246.95529,38.287315 A 217.91603,217.91603 0 0 0 44.477712,203.64897 l 146.082598,14.73854 a 75.685852,75.685852 0 0 1 41.63937,-33.84854 z m 61.39533,6.19429 -14.75559,146.251665 a 75.685852,75.685852 0 0 1 34.03894,41.48386 l 146.08261,14.73854 A 217.91603,217.91603 0 0 0 308.35062,44.481605 Z M 38.283421,265.04433 A 217.91603,217.91603 0 0 0 203.64937,467.51839 l 14.75559,-146.25166 a 75.685852,75.685852 0 0 1 -34.03894,-41.48386 z m 283.156259,28.56816 a 75.685852,75.685852 0 0 1 -41.63937,33.84854 L 265.0447,473.71269 A 217.91603,217.91603 0 0 0 467.52228,308.35103 Z" />
  </g>
</svg>
